<svg aria-hidden="true" style="position: absolute; width: 0; height: 0; overflow: hidden;" version="1.1" xmlns="http://www.w3.org/2000/svg" xmlns:xlink="http://www.w3.org/1999/xlink">
<defs>
<symbol id="icon-astronaut" viewBox="0 0 41 41">
<path fill="#2196f3" style="fill: var(--color1, #2196f3)" d="M40.967 5.796c-0.081-0.247-0.294-0.427-0.551-0.465l-2.448-0.356-1.095-2.218c-0.23-0.467-0.996-0.467-1.225 0l-1.095 2.218-2.448 0.356c-0.258 0.038-0.471 0.217-0.552 0.465-0.080 0.247-0.014 0.519 0.173 0.7l1.772 1.727-0.418 2.438c-0.044 0.256 0.062 0.515 0.271 0.668 0.212 0.154 0.49 0.173 0.72 0.052l2.189-1.151 2.189 1.151c0.1 0.053 0.21 0.079 0.318 0.079 0.141 0 0.283-0.044 0.402-0.131 0.21-0.153 0.316-0.412 0.271-0.668l-0.418-2.438 1.772-1.727c0.186-0.182 0.253-0.453 0.173-0.7zM37.811 7.497c-0.161 0.156-0.234 0.383-0.196 0.605l0.245 1.428-1.282-0.674c-0.1-0.053-0.209-0.079-0.319-0.079s-0.218 0.026-0.318 0.079l-1.282 0.674 0.245-1.428c0.038-0.221-0.036-0.448-0.196-0.605l-1.038-1.011 1.434-0.208c0.223-0.032 0.415-0.172 0.515-0.374l0.641-1.298 0.641 1.298c0.1 0.202 0.292 0.342 0.515 0.374l1.434 0.208-1.037 1.011z"></path>
<path fill="#2196f3" style="fill: var(--color1, #2196f3)" d="M33.484 26.294h-1.367v1.367h1.367v-1.367z"></path>
<path fill="#2196f3" style="fill: var(--color1, #2196f3)" d="M33.484 29.027h-1.367v1.367h1.367v-1.367z"></path>
<path fill="#2196f3" style="fill: var(--color1, #2196f3)" d="M34.85 27.661h-1.367v1.367h1.367v-1.367z"></path>
<path fill="#2196f3" style="fill: var(--color1, #2196f3)" d="M32.117 27.661h-1.367v1.367h1.367v-1.367z"></path>
<path fill="#2196f3" style="fill: var(--color1, #2196f3)" d="M28.7 33.811h-1.367v1.367h1.367v-1.367z"></path>
<path fill="#2196f3" style="fill: var(--color1, #2196f3)" d="M28.7 36.544h-1.367v1.367h1.367v-1.367z"></path>
<path fill="#2196f3" style="fill: var(--color1, #2196f3)" d="M30.067 35.178h-1.367v1.367h1.367v-1.367z"></path>
<path fill="#2196f3" style="fill: var(--color1, #2196f3)" d="M27.333 35.178h-1.367v1.367h1.367v-1.367z"></path>
<path fill="#2196f3" style="fill: var(--color1, #2196f3)" d="M20.5 31.078h-1.367v1.367h1.367v-1.367z"></path>
<path fill="#2196f3" style="fill: var(--color1, #2196f3)" d="M20.5 33.811h-1.367v1.367h1.367v-1.367z"></path>
<path fill="#2196f3" style="fill: var(--color1, #2196f3)" d="M21.867 32.444h-1.367v1.367h1.367v-1.367z"></path>
<path fill="#2196f3" style="fill: var(--color1, #2196f3)" d="M19.133 32.444h-1.367v1.367h1.367v-1.367z"></path>
<path fill="#2196f3" style="fill: var(--color1, #2196f3)" d="M7.516 7.844h-1.367v1.367h1.367v-1.367z"></path>
<path fill="#2196f3" style="fill: var(--color1, #2196f3)" d="M7.516 10.577h-1.367v1.367h1.367v-1.367z"></path>
<path fill="#2196f3" style="fill: var(--color1, #2196f3)" d="M8.883 9.21h-1.367v1.367h1.367v-1.367z"></path>
<path fill="#2196f3" style="fill: var(--color1, #2196f3)" d="M6.15 9.21h-1.367v1.367h1.367v-1.367z"></path>
<path fill="#212121" style="fill: var(--color2, #212121)" d="M31.666 18.142c-0.368-0.497-0.909-0.817-1.522-0.903-0.616-0.087-1.225 0.074-1.717 0.451l-1.605 1.23-2.431 1.816-1.74-0.693c3.102-1.392 5.271-4.495 5.271-8.098 0-4.898-4.001-8.883-8.919-8.883s-8.919 3.985-8.919 8.883c0 1.775 0.531 3.426 1.435 4.815l-3.541-0.031c-0.002 0-0.004 0-0.006 0-0.011 0-0.020 0.005-0.030 0.006-0.068 0.003-0.134 0.016-0.199 0.040-0.016 0.006-0.033 0.010-0.049 0.017-0.008 0.003-0.016 0.004-0.025 0.008l-4.142 2.045c-0.001 0-0.001 0-0.001 0.001l-2.426 1.167c-0.027 0.012-0.054 0.027-0.081 0.045-0.967 0.644-1.296 1.908-0.767 2.941 0.282 0.549 0.763 0.954 1.353 1.139 0.228 0.071 0.46 0.106 0.691 0.106 0.371 0 0.739-0.091 1.076-0.271l1.778-0.946 2.901-1.498 1.738-0.010-6.972 6.939c-0.001 0.001-0.001 0.001-0.002 0.001l-1.715 1.708c-0.405 0.403-0.628 0.938-0.628 1.509s0.223 1.106 0.628 1.51c0.416 0.414 0.964 0.622 1.511 0.622s1.095-0.208 1.512-0.622l1.684-1.677 2.23-1.665 1.154 1.149-2.257 2.248c-0.001 0.001-0.001 0.001-0.002 0.001l-1.715 1.708c-0.405 0.403-0.628 0.938-0.628 1.509s0.223 1.106 0.628 1.51c0.416 0.414 0.964 0.622 1.512 0.622s1.095-0.208 1.512-0.622l4.461-4.442c0.001-0.001 0.001-0.001 0.001-0.002l1.294-1.281-0.005-0.005c0.008-0.008 0.020-0.011 0.028-0.020l6.619-7.25 4.447 0.633c0.032 0.005 0.064 0.007 0.096 0.007 0.083 0 0.163-0.020 0.24-0.049 0.023-0.008 0.042-0.019 0.064-0.030 0.025-0.012 0.051-0.019 0.074-0.035l4.117-2.733c0.015-0.010 0.023-0.027 0.038-0.038 0.016-0.013 0.037-0.018 0.052-0.033l1.629-1.526c0.848-0.794 0.965-2.095 0.272-3.026zM2.73 22.768c-0.222 0.119-0.474 0.143-0.715 0.066-0.239-0.075-0.433-0.238-0.547-0.459-0.206-0.402-0.087-0.891 0.275-1.156l1.683-0.81 0.575 1.682-1.271 0.676zM7.21 20.426l-1.984 1.025-0.562-1.644 2.597-1.282-0.051 1.901zM26.556 11.944c0 1.177-0.281 2.287-0.767 3.279l-5.357-2.433c-0.056-0.735-0.437-1.378-1.010-1.778l1.876-6.227c3.046 0.969 5.259 3.811 5.259 7.159zM11.452 11.944c0-4.145 3.388-7.517 7.552-7.517 0.324 0 0.641 0.027 0.955 0.067l-1.835 6.091c-0.025-0.001-0.048-0.007-0.073-0.007-1.323 0-2.399 1.073-2.399 2.392s1.076 2.392 2.399 2.392c0.89 0 1.658-0.491 2.073-1.21l4.949 2.248c-1.377 1.853-3.581 3.062-6.069 3.062-4.164 0-7.552-3.372-7.552-7.517zM19.083 12.969c0 0.565-0.463 1.025-1.033 1.025s-1.032-0.46-1.032-1.025c0-0.565 0.463-1.025 1.032-1.025s1.033 0.46 1.033 1.025zM3.158 32.219c-0.303 0.3-0.793 0.299-1.095 0.001-0.146-0.146-0.226-0.338-0.226-0.542s0.080-0.396 0.226-0.54l1.233-1.228 1.091 1.086-1.229 1.223zM7.276 37.002c-0.303 0.3-0.793 0.301-1.095 0.001-0.146-0.146-0.226-0.337-0.226-0.542s0.080-0.396 0.226-0.54l1.233-1.229 1.091 1.086-1.229 1.224zM11.737 32.558c-0.001 0.001-0.001 0.001-0.002 0.001l-2.261 2.255-1.091-1.086 2.259-2.249c0 0 0 0 0-0.001s0.001-0.001 0.002-0.001c0.051-0.051 0.083-0.113 0.115-0.174 0.009-0.018 0.026-0.033 0.034-0.051 0.021-0.053 0.025-0.109 0.033-0.165 0.004-0.032 0.018-0.061 0.018-0.093 0-0.046-0.016-0.090-0.026-0.135-0.008-0.041-0.008-0.083-0.024-0.122-0.026-0.064-0.070-0.121-0.117-0.176-0.013-0.015-0.018-0.034-0.032-0.048 0 0 0 0-0.001 0s-0.001-0.002-0.001-0.003l-2.059-2.050c-0.022-0.022-0.050-0.031-0.074-0.049-0.036-0.028-0.071-0.054-0.111-0.074-0.039-0.019-0.079-0.031-0.12-0.042-0.044-0.012-0.086-0.022-0.132-0.025-0.042-0.003-0.081 0.001-0.122 0.006-0.046 0.005-0.089 0.012-0.133 0.026-0.043 0.014-0.081 0.035-0.121 0.057-0.025 0.014-0.054 0.019-0.078 0.037l-2.272 1.696-1.154-1.149 3.074-3.057 5.587 5.495-1.188 1.177zM20.473 23.568c-0.020-0.003-0.038 0.005-0.058 0.003-0.050-0.003-0.098 0.001-0.148 0.009-0.039 0.007-0.076 0.014-0.113 0.027-0.044 0.015-0.083 0.036-0.124 0.060-0.038 0.023-0.073 0.048-0.107 0.079-0.016 0.014-0.036 0.021-0.051 0.038l-6.020 6.593-5.545-5.454 3.63-3.611c0.267-0.266 0.269-0.699 0.002-0.967-0.135-0.135-0.312-0.201-0.489-0.2v-0.001l-2.843 0.017 0.036-2.060 3.977 0.034c1.621 1.658 3.881 2.692 6.382 2.692 0.56 0 1.107-0.058 1.639-0.157 0.051 0.041 0.102 0.083 0.166 0.109l3.087 1.23 0.424 2.106-3.847-0.547zM25.651 23.796l-0.401-1.996 1.853-1.384 1.213 1.61-2.665 1.77zM30.46 20.169l-1.074 1.006-1.193-1.584 1.065-0.817c0.199-0.153 0.45-0.215 0.696-0.183 0.247 0.035 0.466 0.164 0.615 0.364 0.278 0.374 0.23 0.895-0.109 1.214z"></path>
<path fill="#212121" style="fill: var(--color2, #212121)" d="M17.428 23.76l-2.746-2.733c-0.266-0.266-0.698-0.266-0.964 0l-2.745 2.733c-0.128 0.129-0.201 0.303-0.201 0.484s0.072 0.356 0.201 0.485l2.745 2.733c0.133 0.133 0.308 0.199 0.483 0.199s0.349-0.066 0.482-0.199l2.746-2.733c0.128-0.128 0.202-0.303 0.202-0.485s-0.073-0.356-0.202-0.484zM14.2 26.013l-1.777-1.769 1.777-1.769 1.777 1.769-1.777 1.769z"></path>
<path fill="#212121" style="fill: var(--color2, #212121)" d="M21.992 6.497l-0.33 1.327c0.091 0.023 2.226 0.579 2.226 2.753h1.367c-0-2.584-2.134-3.799-3.263-4.080z"></path>
<path fill="#212121" style="fill: var(--color2, #212121)" d="M25.255 11.944h-1.367v1.367h1.367v-1.367z"></path>
</symbol>
<symbol id="icon-clock" viewBox="0 0 41 41">
<path fill="#212121" style="fill: var(--color2, #212121)" d="M40.099 19.605c-0.002-10.83-8.783-19.607-19.613-19.605s-19.607 8.784-19.605 19.613c0.002 8.531 5.518 16.081 13.645 18.676 0.078 0.024 0.158 0.037 0.239 0.037 0.155-0 0.306-0.042 0.439-0.12 0.173-0.102 0.302-0.265 0.363-0.457l4.952-15.695c1.354-0.007 2.446-1.11 2.438-2.464s-1.11-2.446-2.464-2.439c-0.364 0.002-0.724 0.085-1.051 0.245l-6.542-6.543c-0.325-0.313-0.842-0.304-1.155 0.020-0.306 0.317-0.306 0.819 0 1.135l6.539 6.546c-0.502 1.024-0.215 2.26 0.687 2.958l-4.718 14.956c-9.325-3.435-14.099-13.778-10.664-23.103s13.778-14.099 23.103-10.664 14.099 13.779 10.664 23.103c-1.678 4.556-5.126 8.24-9.561 10.216l-0.51-2.401c-0.093-0.441-0.527-0.724-0.968-0.63-0.139 0.030-0.268 0.095-0.375 0.19l-4.916 4.389c-0.337 0.3-0.367 0.816-0.067 1.154 0.098 0.109 0.223 0.191 0.363 0.236l6.276 2.003c0.429 0.138 0.89-0.098 1.028-0.528 0.044-0.136 0.051-0.28 0.022-0.42l-0.501-2.356c7.257-3.060 11.969-10.176 11.953-18.052zM20.49 18.788c0.451 0 0.817 0.366 0.817 0.817s-0.366 0.817-0.817 0.817c-0.451 0-0.817-0.366-0.817-0.817s0.366-0.817 0.817-0.817zM23.181 37.832l2.798-2.496 0.772 3.639-3.571-1.143z"></path>
<path fill="#2196f3" style="fill: var(--color1, #2196f3)" d="M19.673 4.081v1.634c0 0.451 0.366 0.817 0.817 0.817s0.817-0.366 0.817-0.817v-1.634c0-0.451-0.366-0.817-0.817-0.817s-0.817 0.366-0.817 0.817z"></path>
<path fill="#2196f3" style="fill: var(--color1, #2196f3)" d="M4.966 18.788c-0.451 0-0.817 0.366-0.817 0.817s0.366 0.817 0.817 0.817h1.634c0.451 0 0.817-0.366 0.817-0.817s-0.366-0.817-0.817-0.817h-1.634z"></path>
<path fill="#2196f3" style="fill: var(--color1, #2196f3)" d="M36.014 20.422c0.451 0 0.817-0.366 0.817-0.817s-0.366-0.817-0.817-0.817h-1.634c-0.451 0-0.817 0.366-0.817 0.817s0.366 0.817 0.817 0.817h1.634z"></path>
</symbol>
<symbol id="icon-diagram" viewBox="0 0 41 41">
<path fill="#2196f3" style="fill: var(--color1, #2196f3)" d="M19.123 19.173h1.366v6.147h-1.366v-6.147z"></path>
<path fill="#2196f3" style="fill: var(--color1, #2196f3)" d="M24.587 21.905h1.366v3.415h-1.366v-3.415z"></path>
<path fill="#2196f3" style="fill: var(--color1, #2196f3)" d="M13.659 23.954h1.366v1.366h-1.366v-1.366z"></path>
<path fill="#2196f3" style="fill: var(--color1, #2196f3)" d="M9.562 23.271h1.366v2.049h-1.366v-2.049z"></path>
<path fill="#212121" style="fill: var(--color2, #212121)" d="M2.049 36.248h32.783c1.131 0 2.049-0.917 2.049-2.049v-2.732c0-1.131-0.917-2.049-2.049-2.049h-0.683v-17.032l3.879-3.675c0.9 0.444 1.99 0.174 2.579-0.639s0.507-1.933-0.195-2.65-1.82-0.825-2.646-0.253c-0.826 0.572-1.119 1.655-0.695 2.565l-2.923 2.771v-1.576c0-1.132-0.917-2.049-2.049-2.049h-27.319c-1.132 0-2.049 0.917-2.049 2.049v20.489h-0.683c-1.132 0-2.049 0.917-2.049 2.049v2.732c0 1.132 0.917 2.049 2.049 2.049zM38.93 6.197c0.377 0 0.683 0.306 0.683 0.683s-0.306 0.683-0.683 0.683c-0.377 0-0.683-0.306-0.683-0.683s0.306-0.683 0.683-0.683zM4.098 8.929c0-0.377 0.306-0.683 0.683-0.683h27.319c0.377 0 0.683 0.306 0.683 0.683v2.868l-1.366 1.298v-2.8c0-0.377-0.306-0.683-0.683-0.683h-24.587c-0.377 0-0.683 0.306-0.683 0.683v17.074c0 0.377 0.306 0.683 0.683 0.683h24.587c0.377 0 0.683-0.306 0.683-0.683v-12.395l1.366-1.294v15.738h-28.685v-20.489zM10.245 17.807c-0.924-0.003-1.735 0.613-1.981 1.504s0.135 1.835 0.929 2.307c0.794 0.472 1.806 0.353 2.47-0.289l2.374 1.191c0.276 0.138 0.61 0.073 0.815-0.157l5.047-5.678 4.961 3.717c0.266 0.199 0.638 0.178 0.879-0.050l4.312-4.084v10.418h-23.221v-15.708h23.221v3.409l-4.832 4.576-5.003-3.75c-0.284-0.213-0.684-0.173-0.92 0.092l-5.116 5.756-1.913-0.956c0.014-0.082 0.023-0.165 0.026-0.248 0-1.132-0.917-2.049-2.049-2.049zM10.928 19.856c0 0.377-0.306 0.683-0.683 0.683s-0.683-0.306-0.683-0.683c0-0.377 0.306-0.683 0.683-0.683s0.683 0.306 0.683 0.683zM15.025 30.784h6.83v0.683c0 0.377-0.306 0.683-0.683 0.683h-5.464c-0.377 0-0.683-0.306-0.683-0.683v-0.683zM1.366 31.467c0-0.377 0.306-0.683 0.683-0.683h11.611v0.683c0 1.132 0.917 2.049 2.049 2.049h5.464c1.132 0 2.049-0.917 2.049-2.049v-0.683h11.611c0.377 0 0.683 0.306 0.683 0.683v2.732c0 0.377-0.306 0.683-0.683 0.683h-32.783c-0.377 0-0.683-0.306-0.683-0.683v-2.732z"></path>
</symbol>
<symbol id="icon-sms" viewBox="0 0 55 41">
<path d="M49.542 0h-44.417c-2.826 0-5.125 2.299-5.125 5.125v30.75c0 2.826 2.299 5.125 5.125 5.125h44.417c2.826 0 5.125-2.299 5.125-5.125v-30.75c0-2.826-2.299-5.125-5.125-5.125zM49.542 3.417c0.232 0 0.453 0.048 0.655 0.132l-22.863 19.816-22.863-19.816c0.202-0.084 0.423-0.132 0.655-0.132h44.417zM49.542 37.583h-44.417c-0.943 0-1.708-0.766-1.708-1.708v-28.716l22.797 19.758c0.322 0.279 0.721 0.417 1.119 0.417s0.797-0.138 1.119-0.417l22.797-19.758v28.716c0 0.943-0.766 1.708-1.708 1.708z"></path>
</symbol>
<symbol id="icon-facebook" viewBox="0 0 41 41">
<path d="M27.328 6.808h3.743v-6.519c-0.646-0.089-2.867-0.289-5.453-0.289-5.397 0-9.094 3.394-9.094 9.633v5.742h-5.955v7.288h5.955v18.337h7.301v-18.336h5.714l0.907-7.288h-6.623v-5.021c0.002-2.106 0.569-3.548 3.504-3.548z"></path>
</symbol>
<symbol id="icon-Group" viewBox="0 0 39 41">
<path fill="#212121" style="fill: var(--color2, #212121)" d="M38.257 28.313l-10.818-10.897 1.201-5.914c0.31 0.121 0.639 0.184 0.972 0.187h0.008c1.528 0.018 2.781-1.206 2.799-2.733s-1.206-2.781-2.733-2.799c-1.528-0.018-2.781 1.206-2.799 2.733-0.004 0.327 0.050 0.652 0.16 0.96l-6.355 0.776-10.366-10.42c-0.127-0.13-0.301-0.204-0.482-0.205-0.179 0.001-0.351 0.072-0.478 0.199l-1.938 1.927c-0.267 0.267-0.267 0.699 0 0.966l1.043 1.058c-4.040 7.429-2.728 16.628 3.228 22.631 0.055 0.052 0.118 0.095 0.187 0.125-0.043 0.231-0.066 0.466-0.067 0.701v7.927h-8.2c-1.886 0.002-3.414 1.531-3.417 3.417v1.367c0 0.377 0.306 0.683 0.683 0.683h31.433c0.377 0 0.683-0.306 0.683-0.683v-1.367c-0.002-1.886-1.531-3.414-3.417-3.417h-8.2v-3.513c1.285 0.269 2.593 0.407 3.906 0.41 3.15-0.003 6.249-0.789 9.020-2.285l1.048 1.054c0.127 0.13 0.301 0.204 0.482 0.205 0.179-0.001 0.351-0.072 0.478-0.199l1.938-1.927c0.267-0.267 0.267-0.699 0-0.966zM28.656 7.986c0.535-0.532 1.4-0.53 1.933 0.005s0.53 1.4-0.005 1.933c-0.256 0.255-0.603 0.398-0.964 0.398h-0.004c-0.755-0.004-1.364-0.619-1.36-1.374 0.002-0.361 0.147-0.707 0.403-0.962h-0.003zM27.047 12.476l-0.767 3.774-1.506-1.515 2.273-2.259zM26.271 11.321l-2.46 2.446-1.903-1.913 4.363-0.532zM29.584 36.9c1.132 0 2.050 0.918 2.050 2.050v0.683h-30.067v-0.683c0-1.132 0.918-2.050 2.050-2.050h25.967zM20.017 34.167v1.367h-6.833v-1.367h6.833zM13.184 32.8v-5.193c0-1.658 1.533-3.007 3.417-3.007s3.417 1.349 3.417 3.007v5.193h-6.833zM21.384 30.627v-3.020c0-2.411-2.146-4.373-4.783-4.373-1.705-0.026-3.3 0.842-4.204 2.288-5.199-5.476-6.37-13.639-2.919-20.355l23.834 23.97c-3.68 1.872-7.899 2.399-11.927 1.49zM35.848 29.751l-26.979-27.138 0.967-0.963 10.167 10.224c0.005 0 0.007 0.009 0.012 0.012l16.803 16.902-0.97 0.963z"></path>
<path fill="#2196f3" style="fill: var(--color1, #2196f3)" d="M16.607 25.967h-0.006c-1.132-0.002-2.051 0.915-2.053 2.047s0.915 2.051 2.047 2.053h0.006c1.132 0.002 2.051-0.915 2.053-2.047s-0.915-2.051-2.047-2.053zM17.085 28.501c-0.129 0.128-0.303 0.2-0.485 0.199-0.377-0.002-0.682-0.31-0.68-0.687 0.001-0.181 0.073-0.354 0.201-0.481s0.299-0.198 0.478-0.199c0.377 0.002 0.682 0.309 0.68 0.687-0.001 0.181-0.073 0.354-0.201 0.481h0.006z"></path>
</symbol>
<symbol id="icon-instagram" viewBox="0 0 41 41">
<path d="M40.96 12.054c-0.096-2.178-0.448-3.676-0.953-4.974-0.521-1.378-1.322-2.611-2.371-3.636-1.025-1.041-2.267-1.85-3.628-2.363-1.305-0.505-2.795-0.857-4.973-0.953-2.195-0.104-2.892-0.128-8.458-0.128s-6.263 0.024-8.45 0.12c-2.178 0.096-3.676 0.449-4.974 0.953-1.378 0.521-2.611 1.322-3.636 2.371-1.041 1.025-1.85 2.267-2.363 3.628-0.505 1.306-0.857 2.795-0.953 4.974-0.104 2.195-0.128 2.892-0.128 8.458s0.024 6.263 0.12 8.45c0.096 2.178 0.449 3.676 0.953 4.974 0.521 1.377 1.329 2.611 2.371 3.636 1.025 1.041 2.267 1.85 3.628 2.363 1.306 0.504 2.795 0.857 4.974 0.953 2.186 0.096 2.883 0.12 8.45 0.12s6.263-0.024 8.45-0.12c2.179-0.096 3.676-0.448 4.973-0.953 2.755-1.065 4.934-3.244 5.999-5.999 0.504-1.306 0.857-2.796 0.953-4.974 0.096-2.187 0.12-2.884 0.12-8.45s-0.008-6.263-0.104-8.45zM37.268 28.794c-0.088 2.002-0.425 3.084-0.705 3.804-0.689 1.786-2.107 3.204-3.893 3.893-0.721 0.28-1.81 0.617-3.804 0.705-2.163 0.096-2.811 0.12-8.282 0.12s-6.127-0.024-8.282-0.12c-2.002-0.088-3.084-0.424-3.804-0.705-0.889-0.328-1.698-0.849-2.355-1.53-0.681-0.665-1.201-1.466-1.53-2.355-0.28-0.721-0.617-1.81-0.705-3.804-0.096-2.163-0.12-2.811-0.12-8.282s0.024-6.127 0.12-8.281c0.088-2.002 0.424-3.084 0.705-3.804 0.329-0.889 0.849-1.698 1.538-2.355 0.665-0.681 1.465-1.201 2.355-1.53 0.721-0.28 1.81-0.617 3.804-0.705 2.163-0.096 2.811-0.12 8.282-0.12 5.479 0 6.127 0.024 8.282 0.12 2.002 0.088 3.084 0.425 3.805 0.705 0.889 0.328 1.698 0.849 2.355 1.53 0.681 0.665 1.201 1.466 1.53 2.355 0.28 0.721 0.617 1.81 0.705 3.804 0.096 2.163 0.12 2.811 0.12 8.281s-0.024 6.111-0.12 8.274z"></path>
<path d="M20.576 9.972c-5.815 0-10.532 4.717-10.532 10.532s4.718 10.532 10.532 10.532c5.815 0 10.532-4.717 10.532-10.532s-4.717-10.532-10.532-10.532zM20.576 27.336c-3.772 0-6.832-3.059-6.832-6.832s3.060-6.832 6.832-6.832c3.773 0 6.832 3.060 6.832 6.832s-3.059 6.832-6.832 6.832z"></path>
<path d="M33.984 9.555c0 1.358-1.101 2.459-2.459 2.459s-2.459-1.101-2.459-2.459c0-1.358 1.101-2.459 2.459-2.459s2.459 1.101 2.459 2.459z"></path>
</symbol>
<symbol id="icon-linkedin-1" viewBox="0 0 41 41">
<path d="M40.99 41v-0.002h0.010v-15.037c0-7.356-1.584-13.023-10.183-13.023-4.134 0-6.908 2.269-8.041 4.419h-0.12v-3.733h-8.154v27.373h8.49v-13.554c0-3.569 0.676-7.019 5.096-7.019 4.354 0 4.419 4.073 4.419 7.248v13.327h8.482z"></path>
<path d="M0.677 13.627h8.501v27.373h-8.501v-27.373z"></path>
<path d="M4.923 0c-2.718 0-4.923 2.205-4.923 4.923s2.205 4.97 4.923 4.97c2.718 0 4.923-2.252 4.923-4.97-0.002-2.718-2.207-4.923-4.923-4.923v0z"></path>
</symbol>
<symbol id="icon-Logo-1" viewBox="0 0 72 41">
<path d="M25.967 4.783l4.789 4.533-8.889-0.005v21.995h23.233v-8.41l4.783 4.528v-22.641h-23.917zM44.89 22.364l-13.578-12.854h13.578v12.854zM40.674 28.089h-15.131v-14.793h1.070v13.791h14.061v1.002zM29.116 34.234h0.467l-0.814 1.535v0.894h-0.424v-0.894l-0.816-1.535h0.469l0.559 1.151 0.559-1.151zM29.818 36.663l0.197-0.566h0.941l0.199 0.566h0.44l-0.919-2.429h-0.379l-0.918 2.429h0.439zM30.486 34.75l0.352 1.008h-0.704l0.352-1.008zM32.711 35.699c-0.061 0.093-0.092 0.196-0.092 0.309 0 0.205 0.072 0.371 0.215 0.499 0.145 0.127 0.337 0.19 0.577 0.19s0.447-0.065 0.621-0.195l0.137 0.162h0.47l-0.357-0.422c0.14-0.191 0.21-0.437 0.21-0.736h-0.352c0 0.163-0.034 0.312-0.102 0.445l-0.469-0.554 0.165-0.12c0.117-0.085 0.201-0.169 0.252-0.254 0.051-0.086 0.077-0.179 0.077-0.28 0-0.154-0.057-0.282-0.17-0.385-0.112-0.105-0.257-0.157-0.434-0.157-0.196 0-0.351 0.056-0.467 0.167-0.116 0.11-0.173 0.26-0.173 0.45 0 0.078 0.018 0.158 0.055 0.242 0.038 0.083 0.104 0.185 0.199 0.304-0.18 0.129-0.301 0.241-0.362 0.335zM33.807 36.236c-0.119 0.091-0.247 0.137-0.384 0.137-0.121 0-0.218-0.035-0.29-0.105s-0.108-0.161-0.108-0.274c0-0.13 0.067-0.246 0.2-0.347l0.052-0.037 0.53 0.626zM33.372 35.16c-0.115-0.141-0.172-0.259-0.172-0.352 0-0.081 0.023-0.149 0.070-0.202s0.11-0.080 0.189-0.080c0.073 0 0.134 0.023 0.182 0.068 0.048 0.044 0.072 0.098 0.072 0.162 0 0.096-0.035 0.174-0.103 0.235l-0.052 0.042-0.185 0.127zM37.326 36.48c0.167-0.146 0.263-0.348 0.287-0.607h-0.42c-0.022 0.173-0.075 0.298-0.158 0.372s-0.208 0.112-0.374 0.112c-0.181 0-0.319-0.069-0.414-0.207-0.093-0.138-0.14-0.338-0.14-0.601v-0.215c0.002-0.259 0.052-0.455 0.15-0.589 0.099-0.135 0.24-0.202 0.424-0.202 0.158 0 0.278 0.039 0.359 0.117 0.082 0.077 0.133 0.202 0.153 0.377h0.42c-0.027-0.266-0.122-0.472-0.285-0.617s-0.379-0.219-0.647-0.219c-0.199 0-0.375 0.047-0.527 0.142-0.151 0.095-0.267 0.229-0.349 0.404s-0.122 0.377-0.122 0.606v0.227c0.003 0.224 0.045 0.42 0.125 0.589s0.194 0.3 0.34 0.392c0.148 0.091 0.319 0.137 0.512 0.137 0.277 0 0.499-0.072 0.666-0.217zM39.806 36.14c0.082-0.18 0.123-0.389 0.123-0.627v-0.135c-0.001-0.237-0.043-0.444-0.127-0.622-0.083-0.179-0.202-0.316-0.355-0.41-0.152-0.096-0.328-0.143-0.525-0.143s-0.374 0.048-0.527 0.145c-0.152 0.096-0.271 0.234-0.355 0.415-0.083 0.181-0.125 0.39-0.125 0.627v0.137c0.001 0.232 0.043 0.438 0.127 0.616 0.085 0.178 0.204 0.315 0.357 0.412 0.155 0.096 0.33 0.143 0.527 0.143 0.199 0 0.375-0.048 0.527-0.143 0.153-0.097 0.271-0.235 0.354-0.414zM39.354 34.767c0.102 0.144 0.153 0.35 0.153 0.619v0.127c0 0.274-0.051 0.482-0.152 0.624-0.1 0.142-0.244 0.214-0.43 0.214-0.185 0-0.329-0.073-0.434-0.219-0.103-0.146-0.155-0.352-0.155-0.619v-0.14c0.002-0.261 0.055-0.463 0.157-0.606 0.103-0.143 0.246-0.215 0.429-0.215 0.187 0 0.331 0.072 0.432 0.215z"></path>
</symbol>
<symbol id="icon-Logo-3" viewBox="0 0 72 41">
<path d="M24.878 33.553c0.011 0 0.022 0.002 0.032 0.006s0.019 0.009 0.026 0.016l0.149 0.142c-0.116 0.115-0.259 0.208-0.419 0.27-0.188 0.069-0.391 0.102-0.594 0.097-0.192 0.003-0.382-0.027-0.559-0.091-0.16-0.058-0.303-0.145-0.421-0.256-0.12-0.115-0.213-0.249-0.272-0.395-0.065-0.163-0.097-0.334-0.095-0.507-0.003-0.173 0.032-0.346 0.102-0.508 0.065-0.147 0.163-0.281 0.289-0.395 0.127-0.111 0.279-0.199 0.447-0.257 0.184-0.062 0.379-0.093 0.576-0.091 0.183-0.004 0.365 0.024 0.535 0.083 0.148 0.056 0.283 0.133 0.401 0.228l-0.125 0.152c-0.009 0.011-0.019 0.020-0.032 0.028-0.015 0.009-0.033 0.013-0.050 0.011-0.019-0.001-0.038-0.007-0.054-0.016l-0.067-0.041-0.093-0.052c-0.040-0.019-0.082-0.036-0.125-0.050-0.055-0.017-0.112-0.031-0.17-0.040-0.073-0.012-0.147-0.017-0.222-0.016-0.142-0.002-0.282 0.022-0.414 0.068-0.122 0.043-0.233 0.108-0.324 0.191-0.093 0.088-0.164 0.192-0.211 0.304-0.052 0.129-0.078 0.265-0.076 0.401-0.002 0.139 0.024 0.277 0.076 0.408 0.045 0.112 0.116 0.215 0.207 0.303 0.085 0.082 0.191 0.146 0.309 0.188 0.122 0.044 0.252 0.066 0.384 0.065 0.076 0.001 0.152-0.003 0.227-0.013 0.123-0.013 0.241-0.050 0.345-0.109 0.052-0.030 0.101-0.063 0.147-0.1 0.019-0.016 0.044-0.025 0.071-0.026z"></path>
<path d="M29.181 32.837c0.002 0.172-0.032 0.342-0.101 0.503-0.061 0.146-0.156 0.279-0.281 0.391s-0.274 0.199-0.44 0.257c-0.365 0.121-0.768 0.121-1.133 0-0.165-0.058-0.314-0.146-0.438-0.257-0.124-0.114-0.221-0.248-0.283-0.395-0.134-0.326-0.134-0.683 0-1.009 0.064-0.147 0.16-0.282 0.283-0.397 0.125-0.108 0.274-0.192 0.438-0.248 0.364-0.123 0.768-0.123 1.133 0 0.166 0.058 0.315 0.146 0.44 0.257 0.123 0.112 0.218 0.245 0.281 0.39 0.069 0.162 0.103 0.334 0.101 0.507zM28.79 32.837c0.003-0.137-0.021-0.274-0.071-0.405-0.042-0.112-0.11-0.215-0.199-0.303-0.087-0.083-0.195-0.148-0.315-0.191-0.265-0.088-0.559-0.088-0.823 0-0.12 0.043-0.228 0.108-0.315 0.191-0.091 0.087-0.16 0.191-0.201 0.303-0.095 0.264-0.095 0.546 0 0.809 0.042 0.112 0.111 0.215 0.201 0.303 0.087 0.083 0.195 0.147 0.315 0.189 0.265 0.086 0.558 0.086 0.823 0 0.12-0.042 0.227-0.107 0.315-0.189 0.089-0.088 0.157-0.191 0.199-0.303 0.050-0.13 0.074-0.267 0.071-0.405z"></path>
<path d="M32.118 33.261l0.039 0.091c0.015-0.032 0.028-0.062 0.043-0.091 0.014-0.030 0.030-0.060 0.048-0.089l0.952-1.504c0.019-0.026 0.035-0.042 0.054-0.047 0.025-0.007 0.052-0.009 0.078-0.008h0.281v2.446h-0.333v-1.798c0-0.023 0-0.049 0-0.076-0.002-0.028-0.002-0.056 0-0.084l-0.958 1.525c-0.012 0.023-0.032 0.042-0.056 0.056s-0.053 0.021-0.082 0.020h-0.054c-0.029 0-0.057-0.007-0.082-0.020s-0.044-0.033-0.056-0.056l-0.986-1.534c0 0.029 0 0.058 0 0.087s0 0.055 0 0.078v1.798h-0.322v-2.441h0.281c0.026-0.001 0.053 0.001 0.078 0.008 0.023 0.010 0.042 0.027 0.052 0.047l0.973 1.505c0.019 0.028 0.035 0.057 0.048 0.087z"></path>
<path d="M35.7 33.14v0.916h-0.373v-2.443h0.831c0.157-0.003 0.313 0.015 0.464 0.053 0.121 0.030 0.232 0.082 0.328 0.152 0.083 0.066 0.147 0.148 0.186 0.24 0.044 0.1 0.065 0.206 0.063 0.312 0.002 0.107-0.022 0.213-0.069 0.312-0.045 0.094-0.114 0.177-0.201 0.244-0.096 0.073-0.208 0.129-0.33 0.162-0.145 0.040-0.297 0.059-0.449 0.057l-0.451-0.006zM35.7 32.877h0.451c0.098 0.001 0.195-0.011 0.289-0.037 0.077-0.023 0.148-0.058 0.209-0.105 0.056-0.045 0.099-0.1 0.127-0.162 0.031-0.065 0.046-0.135 0.045-0.206 0.004-0.068-0.008-0.136-0.037-0.199s-0.073-0.12-0.13-0.167c-0.142-0.097-0.321-0.143-0.501-0.131h-0.451v1.007z"></path>
<path d="M40.708 34.059h-0.294c-0.030 0.001-0.058-0.007-0.082-0.023-0.021-0.015-0.038-0.035-0.048-0.057l-0.253-0.591h-1.273l-0.263 0.591c-0.010 0.022-0.026 0.041-0.047 0.055-0.024 0.017-0.053 0.025-0.084 0.024h-0.294l1.118-2.446h0.388l1.133 2.446zM38.864 33.151h1.051l-0.443-0.996c-0.034-0.075-0.062-0.152-0.084-0.23l-0.043 0.128c-0.013 0.039-0.028 0.074-0.041 0.104l-0.44 0.994z"></path>
<path d="M42.318 31.624c0.022 0.011 0.041 0.026 0.056 0.044l1.63 1.844c0-0.029 0-0.058 0-0.086s0-0.055 0-0.081v-1.732h0.333v2.446h-0.186c-0.027 0.001-0.053-0.004-0.076-0.015-0.023-0.012-0.043-0.027-0.060-0.045l-1.628-1.842c0.002 0.028 0.002 0.056 0 0.084 0 0.027 0 0.052 0 0.074v1.743h-0.333v-2.446h0.197c0.023-0.001 0.046 0.003 0.067 0.011z"></path>
<path d="M47.084 33.086v0.971h-0.373v-0.971l-1.030-1.473h0.333c0.029-0.002 0.057 0.006 0.080 0.021 0.020 0.016 0.037 0.034 0.050 0.055l0.645 0.95c0.026 0.040 0.048 0.078 0.067 0.113s0.034 0.070 0.047 0.104l0.048-0.105c0.018-0.038 0.039-0.076 0.063-0.112l0.635-0.957c0.013-0.019 0.030-0.036 0.048-0.052 0.022-0.017 0.051-0.026 0.080-0.024h0.337l-1.032 1.48z"></path>
<path d="M31.933 27.508c0.162 0.018 0.326 0.032 0.492 0.045 2.514-0.977 4.641-2.576 6.114-4.598s2.229-4.375 2.171-6.768l-2.77-2.407c0.563 2.547 0.3 5.18-0.761 7.604s-2.877 4.544-5.246 6.123z"></path>
<path d="M30.944 27.396l0.075 0.013c2.531-1.573 4.461-3.769 5.539-6.305s1.257-5.295 0.512-7.92l-3.946-3.428c1.596 2.818 2.239 5.972 1.853 9.095s-1.784 6.086-4.032 8.546z"></path>
<path d="M44.326 19.015c-0.67 2.629-2.299 4.999-4.643 6.76-0.685 0.517-1.423 0.978-2.206 1.376 1.909-0.487 3.663-1.349 5.128-2.519s2.601-2.616 3.321-4.228l-1.6-1.389z"></path>
<path d="M43.698 18.628l-2.279-1.98c-0.044 2.257-0.782 4.463-2.139 6.388s-3.282 3.5-5.576 4.559h0.011c0.511-0 1.022-0.027 1.53-0.079 2.144-0.76 4.038-1.97 5.513-3.521s2.485-3.395 2.94-5.368z"></path>
<path d="M31.274 8.31l-2.718-2.365c-2.43 0.816-4.52 2.25-5.996 4.115s-2.27 4.074-2.278 6.337v0c0.009 2.501 0.978 4.928 2.753 6.897s4.256 3.367 7.048 3.973c2.493-2.639 3.953-5.9 4.167-9.309s-0.828-6.789-2.976-9.648z"></path>
<path d="M49.979 18.264c-0.010-2.967-1.371-5.811-3.786-7.909s-5.688-3.281-9.103-3.289c-1.578-0.001-3.143 0.252-4.615 0.746l16.643 14.46c0.57-1.278 0.862-2.637 0.861-4.008z"></path>
</symbol>
<symbol id="icon-Logo-4" viewBox="0 0 72 41">
<path d="M16.5 14.42h-0.002c-1.639 0-2.967 1.181-2.967 2.637v0.002c0 1.456 1.328 2.637 2.967 2.637h0.002c1.639 0 2.967-1.181 2.967-2.637v-0.002c0-1.456-1.328-2.637-2.967-2.637z"></path>
<path d="M38.4 13.577c-0.005-2.023-0.911-3.961-2.52-5.392s-3.79-2.236-6.066-2.241v0c-2.277 0.004-4.459 0.809-6.069 2.239s-2.517 3.37-2.521 5.393v11.154c0 0 17.175-1.7 17.176-11.152v-0.002z"></path>
<path d="M7.517 28.392c0.004 1.407 0.635 2.756 1.755 3.751s2.637 1.556 4.221 1.561c1.583-0.004 3.1-0.565 4.22-1.56s1.751-2.343 1.755-3.75v-7.761c0 0-11.95 1.184-11.95 7.759zM13.492 29.783c-0.309 0-0.612-0.082-0.869-0.234s-0.458-0.37-0.576-0.624c-0.118-0.254-0.149-0.534-0.089-0.803s0.209-0.518 0.428-0.712c0.219-0.194 0.498-0.327 0.801-0.381s0.618-0.026 0.904 0.079c0.286 0.105 0.53 0.284 0.702 0.512s0.264 0.498 0.264 0.773c0.001 0.183-0.039 0.364-0.117 0.534s-0.193 0.323-0.339 0.453c-0.145 0.13-0.318 0.233-0.508 0.303s-0.394 0.106-0.6 0.106v-0.005z"></path>
<path d="M25.569 29.017h-1.153v1.191h-0.601v-2.915h1.898v0.486h-1.297v0.753h1.153v0.484zM28.456 28.817c0 0.287-0.051 0.539-0.152 0.755s-0.247 0.383-0.436 0.5c-0.188 0.117-0.404 0.176-0.649 0.176-0.242 0-0.457-0.058-0.647-0.174s-0.336-0.282-0.44-0.496c-0.104-0.216-0.157-0.464-0.158-0.745v-0.144c0-0.287 0.051-0.539 0.154-0.757 0.104-0.219 0.25-0.386 0.438-0.503 0.19-0.117 0.406-0.176 0.649-0.176s0.458 0.059 0.647 0.176c0.19 0.116 0.336 0.284 0.438 0.503 0.104 0.217 0.156 0.469 0.156 0.755v0.13zM27.847 28.685c0-0.306-0.055-0.538-0.164-0.697s-0.266-0.238-0.468-0.238c-0.202 0-0.357 0.079-0.466 0.236-0.109 0.156-0.165 0.386-0.166 0.689v0.142c0 0.298 0.055 0.528 0.164 0.693s0.267 0.246 0.472 0.246c0.202 0 0.356-0.079 0.464-0.236 0.108-0.159 0.163-0.39 0.164-0.693v-0.142zM30.403 29.443c0-0.113-0.040-0.2-0.12-0.26-0.080-0.061-0.224-0.125-0.432-0.192-0.208-0.068-0.373-0.135-0.495-0.2-0.331-0.179-0.496-0.42-0.496-0.723 0-0.158 0.044-0.298 0.132-0.42 0.089-0.124 0.217-0.221 0.382-0.29 0.167-0.069 0.354-0.104 0.561-0.104 0.208 0 0.394 0.038 0.557 0.114 0.163 0.075 0.289 0.181 0.378 0.318 0.091 0.137 0.136 0.294 0.136 0.468h-0.601c0-0.133-0.042-0.237-0.126-0.31-0.084-0.075-0.202-0.112-0.354-0.112-0.147 0-0.261 0.031-0.342 0.094-0.081 0.061-0.122 0.143-0.122 0.244 0 0.095 0.047 0.174 0.142 0.238 0.096 0.064 0.237 0.124 0.422 0.18 0.342 0.103 0.591 0.23 0.747 0.382s0.234 0.342 0.234 0.569c0 0.252-0.095 0.45-0.286 0.595-0.191 0.143-0.448 0.214-0.771 0.214-0.224 0-0.428-0.041-0.613-0.122-0.184-0.083-0.325-0.196-0.422-0.338-0.096-0.143-0.144-0.308-0.144-0.497h0.603c0 0.322 0.192 0.483 0.577 0.483 0.143 0 0.254-0.029 0.334-0.086 0.080-0.059 0.12-0.14 0.12-0.244zM33.609 27.78h-0.893v2.428h-0.601v-2.428h-0.881v-0.486h2.374v0.486zM35.707 28.945h-1.153v0.781h1.353v0.482h-1.954v-2.915h1.95v0.486h-1.349v0.695h1.153v0.47zM37.338 29.141h-0.478v1.067h-0.601v-2.915h1.083c0.344 0 0.61 0.077 0.797 0.23s0.28 0.37 0.28 0.651c0 0.199-0.043 0.365-0.13 0.498-0.085 0.132-0.216 0.238-0.39 0.316l0.631 1.191v0.028h-0.645l-0.547-1.067zM36.86 28.655h0.484c0.151 0 0.268-0.038 0.35-0.114 0.083-0.077 0.124-0.184 0.124-0.318 0-0.137-0.039-0.246-0.118-0.324-0.077-0.079-0.197-0.118-0.358-0.118h-0.483v0.875zM40.499 29.181v1.027h-0.601v-2.915h1.137c0.219 0 0.411 0.040 0.577 0.12 0.167 0.080 0.295 0.194 0.384 0.342 0.089 0.147 0.134 0.314 0.134 0.503 0 0.286-0.098 0.511-0.294 0.677-0.195 0.164-0.465 0.246-0.811 0.246h-0.527zM40.499 28.695h0.536c0.159 0 0.28-0.037 0.362-0.112 0.084-0.075 0.126-0.181 0.126-0.32 0-0.143-0.042-0.258-0.126-0.346s-0.2-0.133-0.348-0.136h-0.55v0.915zM44.299 28.945h-1.153v0.781h1.353v0.482h-1.954v-2.915h1.95v0.486h-1.349v0.695h1.153v0.47zM47.086 27.78h-0.893v2.428h-0.601v-2.428h-0.881v-0.486h2.374v0.486zM49.184 28.945h-1.153v0.781h1.353v0.482h-1.954v-2.915h1.95v0.486h-1.349v0.695h1.153v0.47zM50.815 29.141h-0.478v1.067h-0.601v-2.915h1.083c0.344 0 0.61 0.077 0.797 0.23s0.28 0.37 0.28 0.651c0 0.199-0.043 0.365-0.13 0.498-0.085 0.132-0.216 0.238-0.39 0.316l0.631 1.191v0.028h-0.645l-0.547-1.067zM50.337 28.655h0.484c0.151 0 0.268-0.038 0.35-0.114 0.083-0.077 0.124-0.184 0.124-0.318 0-0.137-0.039-0.246-0.118-0.324-0.077-0.079-0.197-0.118-0.358-0.118h-0.482v0.875zM53.866 29.443c0-0.113-0.040-0.2-0.12-0.26-0.080-0.061-0.224-0.125-0.432-0.192-0.208-0.068-0.373-0.135-0.494-0.2-0.331-0.179-0.497-0.42-0.497-0.723 0-0.158 0.044-0.298 0.132-0.42 0.089-0.124 0.217-0.221 0.382-0.29 0.167-0.069 0.354-0.104 0.561-0.104 0.208 0 0.394 0.038 0.557 0.114 0.163 0.075 0.289 0.181 0.378 0.318 0.091 0.137 0.136 0.294 0.136 0.468h-0.601c0-0.133-0.042-0.237-0.126-0.31-0.084-0.075-0.202-0.112-0.354-0.112-0.147 0-0.261 0.031-0.342 0.094-0.081 0.061-0.122 0.143-0.122 0.244 0 0.095 0.047 0.174 0.142 0.238 0.096 0.064 0.237 0.124 0.422 0.18 0.342 0.103 0.591 0.23 0.747 0.382s0.234 0.342 0.234 0.569c0 0.252-0.095 0.45-0.286 0.595-0.191 0.143-0.448 0.214-0.771 0.214-0.224 0-0.428-0.041-0.613-0.122-0.184-0.083-0.325-0.196-0.422-0.338-0.096-0.143-0.144-0.308-0.144-0.497h0.603c0 0.322 0.192 0.483 0.577 0.483 0.143 0 0.254-0.029 0.334-0.086 0.080-0.059 0.12-0.14 0.12-0.244z"></path>
</symbol>
<symbol id="icon-Logo-5" viewBox="0 0 72 41">
<path d="M18.284 30.569c0.167 0.189 0.255 0.425 0.251 0.668 0.008 0.158-0.022 0.316-0.089 0.462s-0.169 0.276-0.299 0.381c-0.323 0.224-0.724 0.333-1.129 0.308h-1.984v-4.231h1.944c0.384-0.023 0.764 0.076 1.077 0.281 0.125 0.096 0.225 0.218 0.29 0.355s0.095 0.287 0.087 0.437c0.011 0.233-0.069 0.463-0.226 0.647-0.151 0.168-0.359 0.285-0.591 0.331 0.263 0.044 0.501 0.172 0.67 0.362zM15.957 29.93h0.831c0.189 0.013 0.376-0.037 0.528-0.141 0.062-0.052 0.111-0.116 0.142-0.188s0.043-0.149 0.036-0.226c0.006-0.077-0.007-0.153-0.037-0.225s-0.078-0.136-0.139-0.189c-0.156-0.106-0.35-0.157-0.544-0.143h-0.817v1.11zM17.397 31.553c0.067-0.053 0.119-0.119 0.153-0.194s0.049-0.155 0.043-0.236c0.005-0.082-0.010-0.163-0.045-0.238s-0.088-0.142-0.156-0.196c-0.163-0.11-0.362-0.165-0.564-0.153h-0.871v1.164h0.883c0.199 0.011 0.395-0.041 0.558-0.147z"></path>
<path d="M22.257 32.388l-1.081-1.653h-0.406v1.653h-0.93v-4.231h1.761c0.444-0.028 0.883 0.1 1.226 0.36 0.246 0.23 0.395 0.532 0.419 0.853s-0.078 0.639-0.288 0.897c-0.217 0.228-0.514 0.38-0.84 0.43l1.151 1.691h-1.011zM20.769 30.158h0.761c0.528 0 0.792-0.214 0.792-0.641 0.005-0.087-0.009-0.175-0.043-0.256s-0.085-0.156-0.152-0.219c-0.167-0.127-0.382-0.189-0.598-0.172h-0.77l0.009 1.288z"></path>
<path d="M27.34 31.536h-1.853l-0.327 0.852h-0.975l1.702-4.183h1.054l1.695 4.183h-0.975l-0.321-0.852zM27.092 30.896l-0.677-1.786-0.677 1.786h1.354z"></path>
<path d="M33.704 32.388h-0.923l-2.070-2.877v2.877h-0.921v-4.231h0.921l2.070 2.894v-2.894h0.923v4.231z"></path>
<path d="M38.972 31.375c-0.191 0.319-0.482 0.579-0.835 0.746-0.402 0.186-0.848 0.277-1.298 0.267h-1.643v-4.231h1.643c0.449-0.011 0.895 0.079 1.298 0.26 0.353 0.163 0.645 0.42 0.835 0.738 0.19 0.344 0.289 0.724 0.289 1.11s-0.099 0.766-0.289 1.11zM37.916 31.274c0.263-0.281 0.408-0.639 0.408-1.010s-0.145-0.729-0.408-1.010c-0.319-0.255-0.734-0.384-1.156-0.36h-0.641v2.739h0.641c0.422 0.024 0.837-0.105 1.156-0.36z"></path>
<path d="M27.918 4.624c0 0 11.916 4.119 11.664 10.080v10.082c0 0-11.907-4.121-11.659-10.082l-0.005-10.080z"></path>
<path d="M50.198 22.426c2.251-1.418 4.854-2.296 7.571-2.555v-3.156c-3.131 1.105-5.787 3.108-7.571 5.711z"></path>
<path d="M48.846 23.376c1.842-3.396 5.035-6.017 8.923-7.323v-9.094c0 0-16.971 5.868-16.612 14.356v14.354c0 0 0.756-0.262 1.946-0.754 0-0.459 0-0.922 0.054-1.387 0.351-3.941 2.397-7.593 5.688-10.152z"></path>
<path d="M47.232 28.709c0.089-0.995 0.288-1.98 0.594-2.939-2.049 2.211-3.29 4.954-3.548 7.844-0.025 0.273-0.038 0.546-0.045 0.827 0.964-0.424 2.086-0.953 3.264-1.575-0.301-1.367-0.39-2.766-0.264-4.156z"></path>
<path d="M47.907 28.761c-0.113 1.258-0.042 2.523 0.21 3.764 4.637-2.54 9.846-6.465 9.646-11.208v-0.413c-3.313 0.339-6.412 1.665-8.822 3.774-0.564 1.307-0.913 2.683-1.034 4.084z"></path>
</symbol>
<symbol id="icon-Logo-6" viewBox="0 0 72 41">
<path d="M36.507 18.729c-0.303-0.403-0.448-0.879-0.413-1.359v-1.97c0-0.604 0.137-1.063 0.411-1.377s0.744-0.47 1.411-0.469c0.627 0 1.072 0.134 1.335 0.401 0.287 0.341 0.427 0.758 0.395 1.178v0.463h-1.121v-0.469c0.004-0.153-0.007-0.307-0.033-0.459-0.016-0.104-0.073-0.2-0.16-0.273-0.115-0.078-0.26-0.116-0.406-0.106-0.154-0.010-0.306 0.030-0.427 0.112-0.098 0.080-0.163 0.186-0.186 0.301-0.032 0.161-0.047 0.324-0.044 0.487v2.391c-0.018 0.231 0.032 0.462 0.144 0.671 0.056 0.071 0.133 0.127 0.224 0.163s0.191 0.048 0.289 0.038c0.144 0.010 0.286-0.029 0.397-0.108 0.091-0.078 0.15-0.18 0.167-0.291 0.026-0.159 0.038-0.319 0.035-0.479v-0.485h1.121v0.443c0.032 0.438-0.105 0.874-0.388 1.239-0.258 0.293-0.696 0.439-1.342 0.439s-1.133-0.156-1.409-0.481z"></path>
<path d="M41.176 18.749c-0.283-0.307-0.425-0.754-0.425-1.345v-2.072c0-0.585 0.142-1.028 0.425-1.329s0.757-0.45 1.421-0.449c0.659 0 1.131 0.15 1.414 0.449 0.283 0.301 0.427 0.744 0.427 1.329v2.072c0 0.585-0.144 1.034-0.432 1.343s-0.757 0.463-1.409 0.463c-0.652 0-1.135-0.156-1.421-0.461zM43.119 18.252c0.101-0.192 0.148-0.402 0.135-0.613v-2.537c0.013-0.207-0.032-0.413-0.132-0.601-0.057-0.073-0.136-0.13-0.229-0.165s-0.195-0.048-0.296-0.035c-0.101-0.012-0.203 0-0.296 0.036s-0.173 0.092-0.231 0.165c-0.102 0.188-0.148 0.394-0.135 0.601v2.549c-0.014 0.211 0.032 0.421 0.135 0.613 0.065 0.065 0.146 0.116 0.237 0.152s0.189 0.054 0.288 0.054c0.099 0 0.198-0.018 0.288-0.054s0.171-0.087 0.237-0.152v-0.012z"></path>
<path d="M45.786 13.614h1.207l0.908 3.824 0.929-3.824h1.175l0.118 5.519h-0.868l-0.093-3.836-0.896 3.836h-0.696l-0.929-3.85-0.086 3.85h-0.877l0.109-5.519z"></path>
<path d="M51.476 13.614h1.88c1.083 0 1.625 0.522 1.625 1.567 0 1.001-0.57 1.5-1.711 1.499h-0.641v2.453h-1.161l0.007-5.519zM53.082 15.973c0.115 0.013 0.231 0.003 0.341-0.027s0.212-0.080 0.297-0.148c0.133-0.186 0.192-0.405 0.167-0.623 0.006-0.168-0.013-0.337-0.056-0.501-0.017-0.055-0.046-0.106-0.085-0.151s-0.090-0.083-0.147-0.111c-0.161-0.067-0.339-0.097-0.518-0.088h-0.45v1.649h0.45z"></path>
<path d="M56.655 13.614h1.247l1.279 5.519h-1.082l-0.253-1.273h-1.112l-0.26 1.273h-1.098l1.279-5.519zM57.72 17.222l-0.434-2.317-0.434 2.317h0.868z"></path>
<path d="M60.214 13.614h0.812l1.555 3.148v-3.148h0.963v5.519h-0.773l-1.565-3.287v3.287h-0.996l0.002-5.519z"></path>
<path d="M65.801 17.029l-1.293-3.407h1.089l0.789 2.188 0.741-2.188h1.066l-1.277 3.407v2.104h-1.114v-2.104z"></path>
<path d="M38.299 21.547v0.289h-0.947v2.243h-0.397v-2.243h-0.952v-0.289h2.296z"></path>
<path d="M41.268 24.078h-0.306c-0.031 0.002-0.062-0.007-0.086-0.024-0.023-0.015-0.041-0.035-0.051-0.058l-0.274-0.601h-1.314l-0.274 0.601c-0.008 0.025-0.022 0.048-0.042 0.068-0.024 0.017-0.055 0.025-0.086 0.024h-0.306l1.161-2.531h0.404l1.175 2.521zM39.346 23.138h1.096l-0.464-1.030c-0.034-0.078-0.063-0.158-0.086-0.238-0.016 0.048-0.030 0.094-0.044 0.134l-0.042 0.106-0.46 1.028z"></path>
<path d="M43.269 23.829c0.073 0.003 0.146 0.003 0.218 0 0.063-0.006 0.125-0.016 0.186-0.030 0.057-0.012 0.113-0.027 0.167-0.046 0.051-0.018 0.102-0.040 0.156-0.062v-0.569h-0.464c-0.011 0.001-0.023-0.001-0.034-0.004s-0.021-0.009-0.029-0.016c-0.008-0.006-0.014-0.013-0.018-0.021s-0.006-0.017-0.006-0.025v-0.194h0.901v0.97c-0.074 0.045-0.151 0.086-0.232 0.12-0.083 0.035-0.169 0.064-0.258 0.086-0.095 0.024-0.192 0.042-0.29 0.052-0.113 0.011-0.226 0.016-0.339 0.016-0.2 0.002-0.399-0.030-0.585-0.094-0.174-0.060-0.332-0.15-0.464-0.265-0.129-0.115-0.231-0.252-0.299-0.401-0.073-0.168-0.109-0.346-0.107-0.525-0.002-0.18 0.033-0.36 0.104-0.529 0.067-0.15 0.169-0.287 0.299-0.401 0.132-0.114 0.29-0.203 0.464-0.263 0.199-0.065 0.41-0.096 0.622-0.094 0.108-0 0.216 0.007 0.323 0.022 0.094 0.013 0.187 0.035 0.276 0.064 0.081 0.026 0.159 0.060 0.232 0.1 0.071 0.040 0.139 0.084 0.202 0.132l-0.111 0.156c-0.009 0.014-0.022 0.026-0.038 0.035s-0.034 0.013-0.053 0.013c-0.026-0.001-0.051-0.008-0.072-0.020-0.035-0.016-0.072-0.036-0.114-0.060-0.049-0.027-0.101-0.050-0.156-0.068-0.069-0.024-0.141-0.043-0.214-0.056-0.097-0.015-0.196-0.023-0.295-0.022-0.153-0.002-0.305 0.022-0.448 0.070-0.129 0.045-0.246 0.113-0.341 0.2-0.096 0.091-0.17 0.198-0.216 0.315-0.104 0.274-0.104 0.57 0 0.844 0.051 0.119 0.13 0.228 0.232 0.319 0.095 0.087 0.211 0.155 0.339 0.2 0.148 0.044 0.304 0.061 0.46 0.050z"></path>
<path d="M46.97 23.789h1.268v0.289h-1.655v-2.531h0.397l-0.009 2.243z"></path>
<path d="M49.556 24.078h-0.397v-2.531h0.397v2.531z"></path>
<path d="M51.032 21.559c0.024 0.012 0.044 0.027 0.060 0.046l1.697 1.908c-0.002-0.030-0.002-0.060 0-0.090 0-0.028 0-0.056 0-0.082v-1.804h0.346v2.541h-0.2c-0.030 0.002-0.059-0.003-0.086-0.014-0.024-0.013-0.045-0.029-0.063-0.048l-1.695-1.906c0 0.030 0 0.058 0 0.086s0 0.054 0 0.078v1.804h-0.332v-2.531h0.207c0.022 0 0.045 0.004 0.065 0.012z"></path>
<path d="M56.058 21.547v0.279h-1.407v0.836h1.14v0.269h-1.14v0.864h1.407v0.279h-1.815v-2.525h1.815z"></path>
<path d="M14.461 5.915l17.627 4.321v15.141l-17.627-4.319v-15.143zM13.33 4.624v17.169l19.885 4.876v-17.167l-19.885-4.878z"></path>
<path d="M23.988 34.64l-19.888-4.88v-17.168l19.888 4.878v17.17z"></path>
<path d="M13.66 5.72l17.397 4.267-7.398 6.389-17.399-4.269 7.401-6.387zM13.33 4.624l-9.23 7.968 19.888 4.878 9.228-7.968-19.885-4.878z"></path>
<path d="M25.107 33.674l8.109-7.002-8.109-1.99v8.992z"></path>
</symbol>
<symbol id="icon-Logo-2" viewBox="0 0 72 41">
<path d="M34.244 4.055h-0.093c-0.143-0.009-0.287-0.012-0.43-0.016v0h-0.311c-0.271 0-0.548 0.007-0.823 0.021-0.021-0.002-0.041-0.002-0.062 0-2.49 0.141-4.93 0.764-7.186 1.833l-0.296 0.142v15.13l0.691-0.235c0.607-0.209 1.253-0.396 1.922-0.57 1.808-0.464 3.665-0.711 5.532-0.735v1.988c-0.247 0.002-0.487 0.009-0.728 0.021h-0.057c-1.436 0.079-2.862 0.298-4.256 0.653-1.766 0.442-3.469 1.106-5.070 1.976v-19.404c1.663-0.97 3.453-1.698 5.319-2.163 1.638-0.423 3.322-0.64 5.013-0.646h0.292c0.349 0.009 0.69 0.024 1.010 0.049 0.843 0.059 1.678 0.192 2.498 0.398v1.957c-0.796-0.185-1.605-0.307-2.42-0.365-0.017-0.001-0.033-0.003-0.050-0.004-0.169-0.014-0.337-0.029-0.495-0.029zM37.688 6.055c0.434 0.033 0.883 0.049 1.338 0.049 1.778-0.006 3.548-0.234 5.271-0.676 1.765-0.444 3.468-1.108 5.068-1.977v19.059c-1.664 0.969-3.455 1.697-5.321 2.163-1.638 0.421-3.322 0.638-5.013 0.645-1.281 0.010-2.559-0.14-3.803-0.448v-19.182c0.294 0.068 0.596 0.13 0.904 0.182 0.505 0.085 1.037 0.148 1.556 0.186zM47.387 6.203l-0.691 0.233c-0.636 0.214-1.277 0.405-1.922 0.575-1.877 0.482-3.807 0.73-5.744 0.737-0.451 0-0.866-0.012-1.267-0.038l-0.551-0.036v15.564l0.474 0.042c0.439 0.038 0.892 0.057 1.348 0.057 1.526-0.006 3.046-0.203 4.524-0.586 1.217-0.305 2.401-0.731 3.535-1.27l0.296-0.142v-15.135z"></path>
<path d="M24.42 30.895c-0.099-0.103-0.219-0.184-0.352-0.238s-0.275-0.079-0.418-0.073c-0.152-0.002-0.303 0.026-0.444 0.083-0.129 0.052-0.247 0.129-0.346 0.228-0.098 0.099-0.174 0.217-0.223 0.348-0.054 0.136-0.081 0.282-0.080 0.429v2.593c-0.006 0.183 0.029 0.364 0.102 0.532 0.061 0.133 0.15 0.251 0.259 0.348 0.104 0.087 0.225 0.15 0.356 0.184 0.126 0.035 0.256 0.053 0.387 0.054 0.144 0.001 0.287-0.029 0.418-0.090 0.13-0.057 0.247-0.138 0.346-0.24 0.096-0.101 0.173-0.219 0.226-0.348 0.055-0.131 0.084-0.271 0.083-0.414v-0.29h-0.678v0.231c0.002 0.079-0.011 0.157-0.040 0.231-0.022 0.055-0.056 0.105-0.099 0.146-0.042 0.034-0.090 0.059-0.142 0.075-0.046 0.015-0.094 0.023-0.142 0.024-0.061 0.007-0.122-0.002-0.178-0.027s-0.104-0.063-0.14-0.112c-0.064-0.104-0.095-0.225-0.090-0.348v-2.417c-0.004-0.134 0.024-0.267 0.083-0.387 0.035-0.055 0.085-0.098 0.144-0.126s0.124-0.038 0.188-0.030c0.058-0.002 0.116 0.010 0.169 0.036s0.098 0.063 0.133 0.11c0.076 0.1 0.115 0.222 0.112 0.348v0.224h0.671v-0.264c0.001-0.155-0.027-0.309-0.083-0.454-0.050-0.136-0.127-0.26-0.226-0.365z"></path>
<path d="M28.446 30.866c-0.216-0.182-0.489-0.283-0.771-0.285-0.138 0.001-0.275 0.025-0.405 0.073-0.132 0.047-0.253 0.119-0.358 0.212-0.112 0.101-0.202 0.225-0.263 0.363-0.068 0.158-0.102 0.33-0.099 0.502v2.487c-0.005 0.175 0.029 0.349 0.099 0.509 0.061 0.134 0.151 0.252 0.263 0.347 0.104 0.096 0.225 0.171 0.358 0.219 0.13 0.048 0.266 0.072 0.405 0.073s0.275-0.025 0.404-0.073c0.135-0.049 0.259-0.123 0.366-0.219 0.108-0.097 0.195-0.215 0.256-0.347 0.070-0.16 0.103-0.334 0.099-0.509v-2.487c0.003-0.173-0.030-0.344-0.099-0.502-0.060-0.137-0.147-0.26-0.256-0.363zM28.13 34.218c0.006 0.066-0.003 0.133-0.027 0.195s-0.060 0.118-0.108 0.164c-0.090 0.075-0.202 0.116-0.319 0.116s-0.229-0.041-0.319-0.116c-0.048-0.046-0.085-0.102-0.108-0.164s-0.033-0.129-0.027-0.195v-2.487c-0.006-0.066 0.003-0.133 0.027-0.195s0.060-0.118 0.108-0.164c0.090-0.075 0.202-0.116 0.319-0.116s0.229 0.041 0.319 0.116c0.048 0.046 0.085 0.102 0.108 0.164s0.032 0.129 0.027 0.195v2.487z"></path>
<path d="M33.734 35.328v-4.707h-0.652l-0.856 2.492h-0.012l-0.863-2.492h-0.645v4.707h0.672v-2.864h0.012l0.659 2.024h0.335l0.664-2.024h0.012v2.864h0.672z"></path>
<path d="M37.555 30.951c-0.104-0.116-0.234-0.205-0.38-0.257-0.157-0.051-0.322-0.076-0.487-0.073h-0.999v4.707h0.671v-1.838h0.346c0.209 0.009 0.418-0.035 0.605-0.129 0.153-0.085 0.28-0.209 0.368-0.36 0.078-0.125 0.13-0.265 0.154-0.41 0.026-0.177 0.039-0.356 0.036-0.535 0.007-0.226-0.015-0.452-0.066-0.672-0.045-0.163-0.13-0.312-0.247-0.433zM37.209 32.386c-0.003 0.085-0.024 0.169-0.062 0.245-0.038 0.072-0.099 0.13-0.173 0.165-0.099 0.044-0.208 0.065-0.316 0.059h-0.306v-1.6h0.346c0.104-0.005 0.208 0.015 0.302 0.059 0.069 0.040 0.124 0.101 0.157 0.174 0.037 0.083 0.057 0.172 0.059 0.262 0 0.099 0 0.203 0 0.313s0.007 0.222 0 0.323h-0.007z"></path>
<path d="M40.732 30.621h-0.55l-1.037 4.707h0.671l0.197-1.011h0.914l0.197 1.011h0.671l-1.063-4.707zM40.113 33.675l0.33-1.706h0.012l0.328 1.706h-0.671z"></path>
<path d="M45.066 33.456h-0.012l-1.013-2.836h-0.645v4.707h0.671v-2.831h0.014l1.025 2.831h0.631v-4.707h-0.671v2.836z"></path>
<path d="M49.164 30.621l-0.539 1.871h-0.014l-0.539-1.871h-0.71l0.921 2.718v1.99h0.671v-1.99l0.921-2.718h-0.71z"></path>
<path d="M22.55 36.657h0.323v0.907h0.219v-0.907h0.322v-0.186h-0.864v0.186z"></path>
<path d="M25.267 36.471l-0.424 1.093h0.233l0.090-0.248h0.436l0.093 0.248h0.239l-0.434-1.093h-0.233zM25.233 37.131l0.149-0.405 0.149 0.405h-0.297z"></path>
<path d="M27.954 37.161h0.252v0.141c-0.074 0.059-0.165 0.091-0.259 0.092-0.044 0.002-0.088-0.006-0.128-0.024s-0.076-0.046-0.103-0.080c-0.058-0.083-0.087-0.184-0.081-0.285 0-0.243 0.105-0.365 0.315-0.365 0.055-0.006 0.11 0.009 0.156 0.041s0.078 0.079 0.092 0.133l0.216-0.042c-0.047-0.214-0.2-0.321-0.463-0.321-0.14-0.004-0.277 0.047-0.382 0.141-0.055 0.054-0.098 0.12-0.125 0.193s-0.038 0.15-0.032 0.228c-0.006 0.15 0.044 0.296 0.14 0.41 0.053 0.055 0.118 0.098 0.19 0.126s0.148 0.039 0.225 0.034c0.171 0.005 0.337-0.058 0.463-0.174v-0.431h-0.474v0.184z"></path>
<path d="M30.697 36.471h-0.221v1.093h0.766v-0.186h-0.544v-0.907z"></path>
<path d="M33.017 36.471h-0.221v1.093h0.221v-1.093z"></path>
<path d="M35.285 37.201l-0.448-0.73h-0.214v1.093h0.206v-0.714l0.439 0.714h0.22v-1.093h-0.202v0.73z"></path>
<path d="M37.335 37.083h0.545v-0.186h-0.545v-0.24h0.586v-0.186h-0.807v1.093h0.83v-0.186h-0.609v-0.295z"></path>
<path d="M42.307 36.902h-0.43v-0.431h-0.219v1.093h0.219v-0.478h0.43v0.478h0.22v-1.093h-0.22v0.431z"></path>
<path d="M44.369 37.083h0.546v-0.186h-0.546v-0.24h0.588v-0.186h-0.807v1.093h0.828v-0.186h-0.608v-0.295z"></path>
<path d="M47.166 37.083c0.19-0.030 0.287-0.13 0.287-0.304 0.006-0.046-0.002-0.094-0.020-0.136s-0.049-0.080-0.087-0.107c-0.099-0.050-0.209-0.072-0.32-0.064h-0.463v1.093h0.22v-0.457h0.043c0.047-0.003 0.094 0.005 0.137 0.024 0.032 0.020 0.059 0.047 0.078 0.080l0.239 0.348h0.263l-0.133-0.214c-0.059-0.106-0.142-0.195-0.242-0.262zM46.945 36.932h-0.162v-0.275h0.173c0.075-0.006 0.151 0.003 0.223 0.026 0.016 0.014 0.029 0.032 0.037 0.051s0.012 0.041 0.011 0.062c-0.001 0.021-0.007 0.042-0.017 0.061s-0.024 0.035-0.042 0.048c-0.072 0.022-0.148 0.031-0.223 0.026z"></path>
<path d="M49.275 37.083h0.544v-0.186h-0.544v-0.24h0.588v-0.186h-0.809v1.093h0.83v-0.186h-0.608v-0.295z"></path>
</symbol>
<symbol id="icon-smartphone" viewBox="0 0 26 41">
<path d="M21.781 0h-17.938c-2.12 0-3.844 1.724-3.844 3.844v33.313c0 2.12 1.724 3.844 3.844 3.844h17.938c2.12 0 3.844-1.724 3.844-3.844v-33.313c0-2.12-1.724-3.844-3.844-3.844zM3.844 2.563h17.938c0.707 0 1.281 0.574 1.281 1.281v26.906h-20.5v-26.906c0-0.707 0.574-1.281 1.281-1.281zM21.781 38.438h-17.938c-0.707 0-1.281-0.574-1.281-1.281v-3.844h20.5v3.844c0 0.707-0.574 1.281-1.281 1.281z"></path>
<path d="M6.031 35.206c0.5 0.467 0.5 1.225 0 1.692s-1.312 0.467-1.812 0c-0.5-0.467-0.5-1.225 0-1.692s1.312-0.467 1.812 0z"></path>
</symbol>
<symbol id="icon-twitter" viewBox="0 0 41 41">
<path d="M41 7.787c-1.525 0.669-3.149 1.112-4.843 1.327 1.742-1.040 3.073-2.675 3.698-4.646-1.624 0.969-3.418 1.653-5.33 2.035-1.543-1.643-3.741-2.66-6.14-2.66-4.653 0-8.4 3.777-8.4 8.408 0 0.666 0.056 1.307 0.195 1.917-6.988-0.341-13.171-3.69-17.325-8.792-0.725 1.258-1.151 2.698-1.151 4.249 0 2.911 1.499 5.491 3.734 6.985-1.35-0.026-2.675-0.418-3.798-1.035 0 0.026 0 0.059 0 0.092 0 4.085 2.914 7.477 6.734 8.259-0.684 0.187-1.43 0.277-2.204 0.277-0.538 0-1.081-0.031-1.591-0.143 1.089 3.329 4.179 5.776 7.854 5.855-2.86 2.237-6.491 3.585-10.422 3.585-0.689 0-1.35-0.031-2.012-0.115 3.723 2.401 8.136 3.772 12.894 3.772 15.467 0 23.924-12.812 23.924-23.918 0-0.372-0.013-0.73-0.031-1.087 1.668-1.184 3.070-2.662 4.213-4.364z"></path>
</symbol>
<symbol id="close-icon" viewBox="0 0 41 41">
<path d="M41 4.129l-4.129-4.129-16.371 16.371-16.371-16.371-4.129 4.129 16.371 16.371-16.371 16.371 4.129 4.129 16.371-16.371 16.371 16.371 4.129-4.129-16.371-16.371 16.371-16.371z"></path>
</symbol>
<symbol id="icon-person-black-18dp-1" viewBox="0 0 41 41">
<path d="M20.5 20.5c3.775 0 6.833-3.058 6.833-6.833s-3.058-6.833-6.833-6.833c-3.775 0-6.833 3.058-6.833 6.833s3.058 6.833 6.833 6.833zM20.5 23.917c-4.561 0-13.667 2.289-13.667 6.833v1.708c0 0.94 0.769 1.708 1.708 1.708h23.917c0.94 0 1.708-0.769 1.708-1.708v-1.708c0-4.544-9.105-6.833-13.667-6.833z"></path>
</symbol>
<symbol id="icon-phone-black-18dp-1" viewBox="0 0 41 41">
<path d="M31.88 25.335l-4.187-0.478c-1.006-0.115-1.995 0.231-2.703 0.94l-3.033 3.033c-4.665-2.374-8.489-6.181-10.863-10.863l3.049-3.049c0.709-0.709 1.055-1.698 0.94-2.703l-0.478-4.154c-0.198-1.665-1.599-2.918-3.28-2.918h-2.852c-1.863 0-3.412 1.549-3.297 3.412 0.874 14.077 12.132 25.319 26.193 26.193 1.863 0.115 3.412-1.434 3.412-3.297v-2.852c0.016-1.665-1.236-3.066-2.901-3.264z"></path>
</symbol>
<symbol id="icon-email-black-18dp-1" viewBox="0 0 41 41">
<path d="M34.167 6.833h-27.333c-1.879 0-3.4 1.537-3.4 3.417l-0.017 20.5c0 1.879 1.538 3.417 3.417 3.417h27.333c1.879 0 3.417-1.538 3.417-3.417v-20.5c0-1.879-1.538-3.417-3.417-3.417zM33.483 14.094l-12.078 7.551c-0.547 0.342-1.264 0.342-1.811 0l-12.078-7.551c-0.427-0.273-0.683-0.735-0.683-1.23 0-1.145 1.247-1.828 2.221-1.23l11.446 7.158 11.446-7.158c0.974-0.598 2.221 0.085 2.221 1.23 0 0.495-0.256 0.957-0.683 1.23z"></path>
</symbol>

</defs>
</svg>
